<svg width="1920" height="1080" viewBox="0 0 1920 1080" xmlns="http://www.w3.org/2000/svg"><rect width="1920" height="1080" fill="#fffafb"/><path d="M 0,1080 C 0,1080 0,154 0,154 C 139.67179487179487,155.56923076923078 279.34358974358975,157.13846153846154 370,168 C 460.65641025641025,178.86153846153846 502.2974358974359,199.01538461538465 598,208 C 693.7025641025641,216.98461538461535 843.4666666666669,214.79999999999998 970,188 C 1096.533333333333,161.20000000000002 1199.8358974358973,109.78461538461539 1314,115 C 1428.1641025641027,120.21538461538461 1553.1897435897436,182.06153846153848 1656,198 C 1758.8102564102564,213.93846153846152 1839.4051282051282,183.96923076923076 1920,154 C 1920,154 1920,1080 1920,1080 Z" fill="#bdaec6" opacity="0.08571428571428572"/><path d="M 0,1080 C 0,1080 0,308 0,308 C 101.89487179487179,298.25384615384615 203.78974358974358,288.5076923076923 322,306 C 440.2102564102564,323.4923076923077 574.7358974358974,368.223076923077 687,363 C 799.2641025641026,357.776923076923 889.2666666666669,302.6 990,276 C 1090.7333333333331,249.4 1202.1974358974358,251.3769230769231 1293,270 C 1383.8025641025642,288.6230769230769 1453.9435897435899,323.8923076923077 1555,333 C 1656.0564102564101,342.1076923076923 1788.0282051282052,325.05384615384617 1920,308 C 1920,308 1920,1080 1920,1080 Z" fill="#bdaec6" opacity="0.17142857142857143"/><path d="M 0,1080 C 0,1080 0,462 0,462 C 90.05128205128202,473.1923076923077 180.10256410256403,484.38461538461536 290,473 C 399.89743589743597,461.61538461538464 529.6410256410257,427.6538461538462 643,420 C 756.3589743589743,412.3461538461538 853.3333333333333,431 961,452 C 1068.6666666666667,473 1187.025641025641,496.34615384615375 1288,494 C 1388.974358974359,491.65384615384625 1472.5641025641028,463.61538461538464 1575,454 C 1677.4358974358972,444.38461538461536 1798.7179487179487,453.1923076923077 1920,462 C 1920,462 1920,1080 1920,1080 Z" fill="#bdaec6" opacity="0.2571428571428571"/><path d="M 0,1080 C 0,1080 0,617 0,617 C 82.8923076923077,632.5179487179487 165.7846153846154,648.0358974358975 262,651 C 358.2153846153846,653.9641025641025 467.7538461538462,644.374358974359 600,636 C 732.2461538461538,627.625641025641 887.2,620.4666666666667 1010,605 C 1132.8,589.5333333333333 1223.4461538461537,565.7589743589743 1312,571 C 1400.5538461538463,576.2410256410257 1487.0153846153846,610.4974358974359 1588,623 C 1688.9846153846154,635.5025641025641 1804.4923076923078,626.251282051282 1920,617 C 1920,617 1920,1080 1920,1080 Z" fill="#bdaec6" opacity="0.34285714285714286"/><path d="M 0,1080 C 0,1080 0,771 0,771 C 120.70769230769233,755.9076923076923 241.41538461538465,740.8153846153846 362,751 C 482.58461538461535,761.1846153846154 603.0461538461537,796.6461538461539 687,811 C 770.9538461538463,825.3538461538461 818.4,818.6 910,819 C 1001.6,819.4 1137.3538461538462,826.953846153846 1249,828 C 1360.6461538461538,829.046153846154 1448.1846153846152,823.5846153846155 1556,813 C 1663.8153846153848,802.4153846153845 1791.9076923076923,786.7076923076922 1920,771 C 1920,771 1920,1080 1920,1080 Z" fill="#bdaec6" opacity="0.4285714285714286"/><path d="M 0,1080 C 0,1080 0,925 0,925 C 93.78461538461539,952.6897435897436 187.56923076923078,980.3794871794871 300,975 C 412.4307692307692,969.6205128205129 543.5076923076923,931.1717948717949 654,909 C 764.4923076923077,886.8282051282051 854.4000000000003,880.9333333333334 949,873 C 1043.5999999999997,865.0666666666666 1142.8923076923074,855.0948717948717 1255,871 C 1367.1076923076926,886.9051282051283 1492.0307692307692,928.6871794871795 1605,942 C 1717.9692307692308,955.3128205128205 1818.9846153846154,940.1564102564103 1920,925 C 1920,925 1920,1080 1920,1080 Z" fill="#bdaec6" opacity="0.5142857142857142"/><path d="M 0,1080 C 0,1080 0,1079 0,1079 C 83.83333333333334,1084.748717948718 167.66666666666669,1090.497435897436 284,1100 C 400.3333333333333,1109.502564102564 549.1666666666666,1122.7589743589742 657,1115 C 764.8333333333334,1107.2410256410258 831.6666666666665,1078.4666666666667 933,1081 C 1034.3333333333335,1083.5333333333333 1170.1666666666667,1117.3743589743592 1295,1120 C 1419.8333333333333,1122.6256410256408 1533.6666666666665,1094.0358974358974 1636,1082 C 1738.3333333333335,1069.9641025641026 1829.1666666666667,1074.4820512820513 1920,1079 C 1920,1079 1920,1080 1920,1080 Z" fill="#bdaec6" opacity="0.6"/></svg>